<svg viewBox="0 0 155 60" xmlns="http://www.w3.org/2000/svg"><path d="m140 50h-125a5 5 0 0 1 -5-5v-30a5 5 0 0 1 5-5h125a5 5 0 0 1 5 5v30a5 5 0 0 1 -5 5"/><path d="m140 10.8a4.2 4.2 0 0 1 4.2 4.2v30a4.2 4.2 0 0 1 -4.2 4.2h-125a4.2 4.2 0 0 1 -4.2-4.2v-30a4.2 4.2 0 0 1 4.2-4.2zm0-.8h-125a5 5 0 0 0 -5 5v30a5 5 0 0 0 5 5h125a5 5 0 0 0 5-5v-30a5 5 0 0 0 -5-5" fill="#a6a6a6"/><path d="m49.57 40.25a20.35 20.35 0 0 1 -11.46 3.5 20.78 20.78 0 0 1 -14-5.34c-.29-.26 0-.62.32-.42a28.13 28.13 0 0 0 14 3.72 27.77 27.77 0 0 0 10.68-2.19c.53-.22.97.35.46.73zm.43 2.06c-.11.28.13.39.39.18 1.66-1.39 2.09-4.3 1.75-4.72s-3.25-.78-5 .47c-.27.19-.22.45.08.41 1-.12 3.22-.38 3.61.13s-.42 2.59-.83 3.53zm-2.38-12.57h2.84l-3.26 4.67a1.45 1.45 0 0 0 -.2.83v1.23c0 .18.2.38.39.28a6.24 6.24 0 0 1 5.72 0 .29.29 0 0 0 .4-.27v-1.3a.54.54 0 0 0 -.28-.47 6 6 0 0 0 -3.1-.66l2.81-4a1.71 1.71 0 0 0 .41-.76v-1a.31.31 0 0 0 -.31-.31h-5.42a.31.31 0 0 0 -.31.31v1.21a.3.3 0 0 0 .31.24zm-19.77 7v-4.54c0-1-.05-2.33 1.14-2.33s1 1.39 1 2.33v4.49a.32.32 0 0 0 .29.31h1.72a.31.31 0 0 0 .32-.31v-4.49a5.11 5.11 0 0 1 .15-1.62 1.09 1.09 0 0 1 1-.69.87.87 0 0 1 1 .73 11.87 11.87 0 0 1 0 1.58v4.49a.32.32 0 0 0 .3.31h1.65a.32.32 0 0 0 .32-.31v-5.34a4.55 4.55 0 0 0 -.42-2.66 2.44 2.44 0 0 0 -4.19.64 2.27 2.27 0 0 0 -4.31 0v-1.1a.3.3 0 0 0 -.3-.28h-1.62a.3.3 0 0 0 -.31.3v8.47a.32.32 0 0 0 .3.28h1.65a.31.31 0 0 0 .31-.31zm26.46-4.24c0 2.62 1.31 4.72 3.71 4.72s3.77-2.05 3.77-4.63-1.32-4.82-3.79-4.82-3.69 2.05-3.69 4.68zm4.8-2.14a7.74 7.74 0 0 1 .25 2.25c0 1.09-.06 2.87-1.34 2.87s-1.28-2.21-1.28-3.24.08-2.74 1.26-2.74a1 1 0 0 1 1.11.81zm6.18 6.38v-4.61a3.77 3.77 0 0 1 .26-1.6 1.07 1.07 0 0 1 1-.68c1.14 0 1 1.36 1 2.28v4.6a.31.31 0 0 0 .29.27h1.65a.32.32 0 0 0 .32-.27v-5.33a5.42 5.42 0 0 0 -.43-2.64 2.16 2.16 0 0 0 -1.93-1 2.23 2.23 0 0 0 -2.24 1.71v-1.3a.29.29 0 0 0 -.29-.23h-1.58a.32.32 0 0 0 -.32.27v8.47a.32.32 0 0 0 .29.31h1.69a.33.33 0 0 0 .29-.3zm-22.29-4.14c-1.2 0-2.46.25-2.46 1.66 0 .71.37 1.19 1 1.19a1.33 1.33 0 0 0 1.14-.75 3.26 3.26 0 0 0 .32-1.7zm1.65 4.4 1.27-1.1a.31.31 0 0 0 0-.44 2.23 2.23 0 0 1 -.62-1.52v-2.59c0-1.09.08-2.09-.72-2.84a3.76 3.76 0 0 0 -2.49-.82c-1.57 0-3.32.58-3.69 2.52a.29.29 0 0 0 .25.35l1.6.17a.34.34 0 0 0 .28-.3 1.27 1.27 0 0 1 1.33-1 1.13 1.13 0 0 1 .93.43 2.14 2.14 0 0 1 .2 1.2v.21a11.32 11.32 0 0 0 -3.11.58 2.78 2.78 0 0 0 -1.75 2.69 2.34 2.34 0 0 0 2.46 2.57 3.23 3.23 0 0 0 2.72-1.2 3.86 3.86 0 0 0 .95 1.1.33.33 0 0 0 .39 0zm-23.29-4.4c-1.19 0-2.45.25-2.45 1.66 0 .71.37 1.19 1 1.19a1.33 1.33 0 0 0 1.14-.75 3.17 3.17 0 0 0 .31-1.7zm1.64 4.4 1.26-1.1c.14-.11.11-.29 0-.44a2.23 2.23 0 0 1 -.62-1.52v-2.59c0-1.09.07-2.09-.73-2.84a3.71 3.71 0 0 0 -2.48-.82c-1.57 0-3.33.58-3.69 2.52a.29.29 0 0 0 .24.35l1.6.17a.36.36 0 0 0 .29-.3 1.26 1.26 0 0 1 1.32-1 1.12 1.12 0 0 1 .93.43 2.14 2.14 0 0 1 .2 1.2v.21a11.18 11.18 0 0 0 -3.1.58 2.79 2.79 0 0 0 -1.76 2.69 2.34 2.34 0 0 0 2.54 2.57 3.26 3.26 0 0 0 2.72-1.2 4 4 0 0 0 .94 1.1.33.33 0 0 0 .34-.01zm55-.2a5 5 0 0 0 1.28-.8l.09.5c0 .23.17.34.43.34h.91a.33.33 0 0 0 .38-.37v-5.82a2.69 2.69 0 0 0 -.8-2.15 3.78 3.78 0 0 0 -2.49-.69 8.32 8.32 0 0 0 -3 .51.84.84 0 0 0 -.36.23.59.59 0 0 0 -.07.34v.64c0 .22.07.33.22.33a1.33 1.33 0 0 0 .3-.05 7.49 7.49 0 0 1 1.3-.32 7.33 7.33 0 0 1 1.26-.11 2 2 0 0 1 1.33.34 1.62 1.62 0 0 1 .38 1.22v1a8.86 8.86 0 0 0 -2-.26 3.74 3.74 0 0 0 -2.47.76 2.47 2.47 0 0 0 -.92 2 2.49 2.49 0 0 0 .75 1.88 2.68 2.68 0 0 0 1.95.72 3.84 3.84 0 0 0 1.53-.24zm-1.84-1.49a1.25 1.25 0 0 1 -.34-.94c0-.93.59-1.39 1.79-1.39a7.84 7.84 0 0 1 1.62.19v1.65a4.45 4.45 0 0 1 -1.07.61 3 3 0 0 1 -1 .22 1.33 1.33 0 0 1 -1.05-.34zm8.46 5.07a.33.33 0 0 0 .38-.38v-3.92a3.62 3.62 0 0 0 1.17.69 3.94 3.94 0 0 0 1.4.25 3.44 3.44 0 0 0 1.93-.56 3.82 3.82 0 0 0 1.32-1.64 6.23 6.23 0 0 0 .47-2.5 5.19 5.19 0 0 0 -1-3.29 3.18 3.18 0 0 0 -2.61-1.22 4.2 4.2 0 0 0 -1.53.29 4.53 4.53 0 0 0 -1.33.84l-.11-.53a.39.39 0 0 0 -.44-.34h-1a.33.33 0 0 0 -.38.38v11.55a.33.33 0 0 0 .38.38zm.38-5.63v-4.69a3.6 3.6 0 0 1 2-.65 1.87 1.87 0 0 1 1.63.73 3.89 3.89 0 0 1 .52 2.25 3.92 3.92 0 0 1 -.53 2.28 1.88 1.88 0 0 1 -1.64.75 3.53 3.53 0 0 1 -1.98-.67zm9.41 5.63a.33.33 0 0 0 .38-.38v-3.92a3.42 3.42 0 0 0 1.17.69 3.88 3.88 0 0 0 1.34.23 3.42 3.42 0 0 0 1.93-.56 3.82 3.82 0 0 0 1.32-1.64 6.06 6.06 0 0 0 .47-2.5 5.13 5.13 0 0 0 -1-3.29 3.18 3.18 0 0 0 -2.61-1.22 4.11 4.11 0 0 0 -1.52.29 4.58 4.58 0 0 0 -1.34.84l-.1-.53a.41.41 0 0 0 -.45-.34h-1a.33.33 0 0 0 -.38.38v11.57a.33.33 0 0 0 .38.38zm.38-5.63v-4.69a3.59 3.59 0 0 1 2.06-.65 1.86 1.86 0 0 1 1.63.73 3.89 3.89 0 0 1 .52 2.25 3.91 3.91 0 0 1 -.54 2.28 1.86 1.86 0 0 1 -1.63.75 3.49 3.49 0 0 1 -2.09-.67zm12.68 1.59a2.48 2.48 0 0 0 .93-2 2.06 2.06 0 0 0 -.46-1.39 3.45 3.45 0 0 0 -1.54-.95l-1.32-.52a3.7 3.7 0 0 1 -1-.5.78.78 0 0 1 -.27-.62.82.82 0 0 1 .37-.73 2.34 2.34 0 0 1 1.17-.23 7.52 7.52 0 0 1 1.75.26 3.24 3.24 0 0 0 .44.08.25.25 0 0 0 .21-.07.49.49 0 0 0 .06-.27v-.6a.62.62 0 0 0 -.09-.39.66.66 0 0 0 -.34-.2 6.78 6.78 0 0 0 -2.15-.36 3.78 3.78 0 0 0 -2.4.7 2.29 2.29 0 0 0 -.89 1.9 2.53 2.53 0 0 0 1.93 2.41l1.43.55a2.6 2.6 0 0 1 .89.48.79.79 0 0 1 .24.61.94.94 0 0 1 -.39.82 2.42 2.42 0 0 1 -1.26.26 8.21 8.21 0 0 1 -2.21-.34 2.32 2.32 0 0 0 -.48-.11c-.16 0-.24.12-.24.35v.62a.7.7 0 0 0 .08.37.8.8 0 0 0 .35.22 7.1 7.1 0 0 0 2.52.44 4 4 0 0 0 2.62-.79zm7.23.43a.71.71 0 0 0 .36-.19.6.6 0 0 0 .09-.38v-.62c0-.22-.1-.33-.29-.33a2.4 2.4 0 0 0 -.4 0 2.76 2.76 0 0 1 -.63.05 1.44 1.44 0 0 1 -1-.25 1 1 0 0 1 -.28-.83v-4.6h2.11a.33.33 0 0 0 .38-.38v-.79a.33.33 0 0 0 -.38-.38h-2.11v-2.07a.34.34 0 0 0 -.38-.38h-.9a.46.46 0 0 0 -.31.09.41.41 0 0 0 -.12.29l-.26 2.09-1.19.17a.38.38 0 0 0 -.36.45v.5a.34.34 0 0 0 .38.38h1.1v4.75a2.61 2.61 0 0 0 .66 2 2.8 2.8 0 0 0 2 .63 6.06 6.06 0 0 0 1.48-.2zm8.35-.91a4.93 4.93 0 0 0 1.12-3.42 4.9 4.9 0 0 0 -1.17-3.44 4.6 4.6 0 0 0 -6.24 0 4.85 4.85 0 0 0 -1.12 3.41 4.88 4.88 0 0 0 1.12 3.42 4.57 4.57 0 0 0 6.24 0zm-5.29-3.42c0-2 .72-3 2.17-3s2.17 1 2.17 3-.73 3.05-2.17 3.05-2.22-1.02-2.22-3.05zm9.5 4.39c.26 0 .38-.12.38-.37v-6a4 4 0 0 1 2.26-.66h.39.28c.21 0 .31-.12.31-.36v-.93a.82.82 0 0 0 -.06-.38.35.35 0 0 0 -.2-.15 1.35 1.35 0 0 0 -.37 0h-.07a2.78 2.78 0 0 0 -1.31.31 4.39 4.39 0 0 0 -1.29 1.07l-.21-1a.37.37 0 0 0 -.13-.25.57.57 0 0 0 -.34-.07h-.91a.33.33 0 0 0 -.38.38v8a.33.33 0 0 0 .38.37zm11.11-.2a.77.77 0 0 0 .36-.22.69.69 0 0 0 .07-.37v-.62c0-.23-.08-.34-.25-.34h-.13l-.2.06a8.15 8.15 0 0 1 -2.17.32 3.08 3.08 0 0 1 -2.1-.61 2.65 2.65 0 0 1 -.73-1.92h5.31a.36.36 0 0 0 .25-.08.53.53 0 0 0 .13-.3 10.4 10.4 0 0 0 .08-1.22 3.57 3.57 0 0 0 -.9-2.61 3.48 3.48 0 0 0 -2.59-.92 3.86 3.86 0 0 0 -3.06 1.24 5.06 5.06 0 0 0 -1.1 3.46 4.78 4.78 0 0 0 1.12 3.41 4.36 4.36 0 0 0 3.29 1.17 7 7 0 0 0 2.57-.45zm-5.15-5.05a2.67 2.67 0 0 1 .67-1.67 2 2 0 0 1 1.52-.62 1.6 1.6 0 0 1 1.33.55 2.42 2.42 0 0 1 .46 1.6v.14zm-75.73-9.06a2.25 2.25 0 0 0 .71-.43v.3a.18.18 0 0 0 .2.17h.38a.16.16 0 0 0 .18-.18v-3.08a1.34 1.34 0 0 0 -.4-1.08 1.86 1.86 0 0 0 -1.26-.36 4.89 4.89 0 0 0 -.85.08 3.22 3.22 0 0 0 -.71.2.27.27 0 0 0 -.14.1.25.25 0 0 0 0 .17v.24c0 .11 0 .16.11.16l.26-.06a4.19 4.19 0 0 1 1.22-.18 1.14 1.14 0 0 1 .75.2.91.91 0 0 1 .22.68v.6a5 5 0 0 0 -1.16-.16 1.89 1.89 0 0 0 -1.26.4 1.29 1.29 0 0 0 -.46 1 1.27 1.27 0 0 0 .38 1 1.42 1.42 0 0 0 1 .37 2.17 2.17 0 0 0 .83-.14zm-1.1-.7a.7.7 0 0 1 -.19-.53c0-.52.34-.78 1-.78a4.56 4.56 0 0 1 1 .11v.92a2.24 2.24 0 0 1 -.62.34 1.83 1.83 0 0 1 -.62.12.73.73 0 0 1 -.57-.18zm5.55.74a.3.3 0 0 0 .18 0s.08-.09.13-.21l1.58-4a.49.49 0 0 1 0-.11.36.36 0 0 0 0-.1c0-.08 0-.11-.13-.11h-.5a.44.44 0 0 0 -.19 0 .54.54 0 0 0 -.11.21l-1.24 3.51-1.23-3.51a.42.42 0 0 0 -.12-.21.41.41 0 0 0 -.19 0h-.53c-.09 0-.13 0-.13.11a.36.36 0 0 0 0 .1.49.49 0 0 1 0 .11l1.59 4c0 .12.09.19.13.21a.28.28 0 0 0 .18 0zm4.49 0a2.3 2.3 0 0 0 .72-.43v.3a.19.19 0 0 0 .2.17h.39a.16.16 0 0 0 .18-.18v-3.12a1.34 1.34 0 0 0 -.4-1.08 1.89 1.89 0 0 0 -1.27-.36 5 5 0 0 0 -.85.08 3.12 3.12 0 0 0 -.7.2.36.36 0 0 0 -.15.1.34.34 0 0 0 0 .17v.24c0 .11 0 .16.11.16l.26-.06a4.12 4.12 0 0 1 1.21-.18 1.1 1.1 0 0 1 .75.2.87.87 0 0 1 .22.68v.6a4.94 4.94 0 0 0 -1.1-.16 1.85 1.85 0 0 0 -1.26.4 1.42 1.42 0 0 0 -.09 2 1.46 1.46 0 0 0 1 .37 2.17 2.17 0 0 0 .78-.14zm-1.1-.7a.74.74 0 0 1 -.19-.53q0-.78 1-.78a4.47 4.47 0 0 1 1 .11v.92a2 2 0 0 1 -.62.34 1.75 1.75 0 0 1 -.62.12.77.77 0 0 1 -.57-.22zm4.67-4.86a.53.53 0 0 0 .15-.39.54.54 0 0 0 -.15-.4.54.54 0 0 0 -.41-.15.56.56 0 0 0 -.41.15.57.57 0 0 0 -.14.4.5.5 0 0 0 .55.54.54.54 0 0 0 .41-.15zm-.15 5.52a.16.16 0 0 0 .18-.18v-4.2a.16.16 0 0 0 -.18-.18h-.53a.16.16 0 0 0 -.18.18v4.2a.16.16 0 0 0 .18.18zm2.87 0a.27.27 0 0 0 .14-.08.26.26 0 0 0 0-.14v-.3a.25.25 0 0 0 0-.13.17.17 0 0 0 -.13 0h-.21a.4.4 0 0 1 -.29-.09.49.49 0 0 1 -.08-.3v-5.4a.16.16 0 0 0 -.15-.18h-.53a.16.16 0 0 0 -.18.18v5.46a1.12 1.12 0 0 0 .25.79 1 1 0 0 0 .73.27 2.42 2.42 0 0 0 .49-.05zm2.87 0a2.42 2.42 0 0 0 .72-.43v.3a.19.19 0 0 0 .2.17h.49a.16.16 0 0 0 .18-.18v-3.08a1.34 1.34 0 0 0 -.41-1.08 1.86 1.86 0 0 0 -1.26-.36 5 5 0 0 0 -.85.08 3.12 3.12 0 0 0 -.7.2.3.3 0 0 0 -.15.1.34.34 0 0 0 0 .17v.24c0 .11 0 .16.1.16l.26-.06a4.24 4.24 0 0 1 1.22-.18 1.14 1.14 0 0 1 .75.2.87.87 0 0 1 .22.68v.6a5 5 0 0 0 -1.13-.16 1.85 1.85 0 0 0 -1.26.4 1.42 1.42 0 0 0 -.09 2 1.45 1.45 0 0 0 1 .37 2.17 2.17 0 0 0 .75-.14zm-1.1-.7a.7.7 0 0 1 -.19-.53q0-.78 1-.78a4.47 4.47 0 0 1 1 .11v.92a2.1 2.1 0 0 1 -.62.34 1.79 1.79 0 0 1 -.62.12.77.77 0 0 1 -.53-.18zm7.51.18a2.71 2.71 0 0 0 .54-1.77 2.68 2.68 0 0 0 -.51-1.73 1.66 1.66 0 0 0 -1.38-.63 2.2 2.2 0 0 0 -1.45.57v-2.36a.16.16 0 0 0 -.18-.18h-.53a.16.16 0 0 0 -.18.18v6.3a.16.16 0 0 0 .18.18h.38a.19.19 0 0 0 .21-.18l.06-.3a2.06 2.06 0 0 0 1.45.58 1.69 1.69 0 0 0 1.41-.66zm-2.8-.49v-2.51a2 2 0 0 1 1.2-.41 1.1 1.1 0 0 1 .93.41 2.18 2.18 0 0 1 .3 1.27c0 1.12-.42 1.68-1.25 1.68a1.9 1.9 0 0 1 -1.14-.45zm5.8 1.04a.27.27 0 0 0 .14-.08.26.26 0 0 0 0-.14v-.33a.25.25 0 0 0 0-.13s-.06 0-.13 0h-.21a.36.36 0 0 1 -.28-.09.43.43 0 0 1 -.09-.3v-5.4a.16.16 0 0 0 -.18-.18h-.53a.16.16 0 0 0 -.18.18v5.46a1.12 1.12 0 0 0 .25.79 1 1 0 0 0 .73.27 2.42 2.42 0 0 0 .48-.05zm3.74.07a3 3 0 0 0 .64-.19.32.32 0 0 0 .15-.1.25.25 0 0 0 0-.17v-.25c0-.11 0-.16-.12-.16h-.08-.11a5.2 5.2 0 0 1 -.62.16 4.41 4.41 0 0 1 -.52 0 1.51 1.51 0 0 1 -1.08-.3 1.61 1.61 0 0 1 -.38-1.14h2.82a.2.2 0 0 0 .14 0 .27.27 0 0 0 0-.14 3.9 3.9 0 0 0 0-.58 1.89 1.89 0 0 0 -.46-1.37 1.73 1.73 0 0 0 -1.31-.48 2 2 0 0 0 -1.59.63 2.59 2.59 0 0 0 -.57 1.78 2.57 2.57 0 0 0 .57 1.81 2.18 2.18 0 0 0 1.68.61 3.81 3.81 0 0 0 .83-.11zm-2.14-2.74a1.6 1.6 0 0 1 .36-1 1.15 1.15 0 0 1 .88-.33 1 1 0 0 1 .75.27 1.21 1.21 0 0 1 .26.83 1.49 1.49 0 0 1 0 .24zm8.11 2.64a2.42 2.42 0 0 0 .72-.43v.3a.19.19 0 0 0 .2.17h.39a.16.16 0 0 0 .18-.18v-3.08a1.34 1.34 0 0 0 -.41-1.08 1.86 1.86 0 0 0 -1.26-.36 5 5 0 0 0 -.85.08 3.12 3.12 0 0 0 -.7.2.3.3 0 0 0 -.15.1.32.32 0 0 0 0 .17v.24c0 .11 0 .16.11.16l.26-.06a4.19 4.19 0 0 1 1.22-.18 1.14 1.14 0 0 1 .75.2.87.87 0 0 1 .22.68v.6a5 5 0 0 0 -1.13-.16 1.85 1.85 0 0 0 -1.26.4 1.42 1.42 0 0 0 -.09 2 1.45 1.45 0 0 0 1 .37 2.17 2.17 0 0 0 .8-.14zm-1.1-.7a.7.7 0 0 1 -.19-.53q0-.78 1-.78a4.47 4.47 0 0 1 1 .11v.92a2.1 2.1 0 0 1 -.62.34 1.79 1.79 0 0 1 -.62.12.75.75 0 0 1 -.57-.18zm6.2.69a.21.21 0 0 0 .14-.09.3.3 0 0 0 0-.18v-.24a.23.23 0 0 0 0-.13s0 0-.09 0h-.19a2.27 2.27 0 0 1 -.42 0 .76.76 0 0 1 -.51-.13.62.62 0 0 1 -.15-.47v-2.57h1.17a.16.16 0 0 0 .18-.18v-.34a.16.16 0 0 0 -.18-.18h-1.16v-1.1a.16.16 0 0 0 -.18-.18h-.37a.17.17 0 0 0 -.19.18l-.12 1.1-.66.08a.3.3 0 0 0 -.15.07.17.17 0 0 0 0 .13v.23a.16.16 0 0 0 .18.18h.64v2.64a1.13 1.13 0 0 0 1.25 1.29 2.86 2.86 0 0 0 .81-.11z" fill="#fff" fill-rule="evenodd"/></svg>