<svg viewBox="0 0 139.66 60" xmlns="http://www.w3.org/2000/svg"><path d="m120.13 10h-102.61a13.39 13.39 0 0 0 -2 .18 6.34 6.34 0 0 0 -1.9.63 6.46 6.46 0 0 0 -2.8 2.8 6.74 6.74 0 0 0 -.63 1.9 12.18 12.18 0 0 0 -.17 2v.92 23.13.92a12.18 12.18 0 0 0 .17 2 6.7 6.7 0 0 0 .63 1.91 6.19 6.19 0 0 0 1.18 1.61 6.07 6.07 0 0 0 1.62 1.18 6.64 6.64 0 0 0 1.9.63 13.39 13.39 0 0 0 2 .18h104.62a13.39 13.39 0 0 0 2-.18 6.8 6.8 0 0 0 1.91-.63 6.24 6.24 0 0 0 1.62-1.18 6.31 6.31 0 0 0 1.8-3.52 13.39 13.39 0 0 0 .18-2c0-.31 0-.61 0-.92v-23.12c0-.3 0-.61 0-.92a13.39 13.39 0 0 0 -.18-2 6.72 6.72 0 0 0 -.62-1.9 6.53 6.53 0 0 0 -2.8-2.8 6.8 6.8 0 0 0 -1.91-.63 13.39 13.39 0 0 0 -2-.18h-2z" fill="#a6a6a6"/><path d="m18.44 49.13h-.9a11.7 11.7 0 0 1 -1.87-.13 5.79 5.79 0 0 1 -1.67-.6 5.5 5.5 0 0 1 -1.39-1 5.19 5.19 0 0 1 -1-1.4 5.69 5.69 0 0 1 -.55-1.66 13 13 0 0 1 -.16-1.87c0-.21 0-.92 0-.92v-23.11s0-.69 0-.89a13 13 0 0 1 .16-1.87 5.69 5.69 0 0 1 .54-1.68 5.38 5.38 0 0 1 1-1.4 5.59 5.59 0 0 1 1.4-1 5.69 5.69 0 0 1 1.66-.55 13 13 0 0 1 1.87-.16h104.6a13 13 0 0 1 1.86.16 5.85 5.85 0 0 1 1.67.55 5.58 5.58 0 0 1 2.41 2.4 5.92 5.92 0 0 1 .54 1.65 13.14 13.14 0 0 1 .17 1.88v.89 1.1 20.94 1.08.93a12.72 12.72 0 0 1 -.17 1.85 6 6 0 0 1 -.54 1.67 5.6 5.6 0 0 1 -1 1.39 5.41 5.41 0 0 1 -1.4 1 5.69 5.69 0 0 1 -1.67.62 11.8 11.8 0 0 1 -1.87.16h-.9-102.79z"/><g fill="#fff"><path d="m34.77 30.3a4.93 4.93 0 0 1 2.36-4.15 5.08 5.08 0 0 0 -4-2.16c-1.68-.18-3.3 1-4.16 1s-2.19-1-3.61-1a5.31 5.31 0 0 0 -4.47 2.73c-1.93 3.34-.49 8.27 1.36 11 .93 1.33 2 2.81 3.43 2.75s1.9-.88 3.58-.88 2.14.88 3.59.85 2.43-1.33 3.32-2.67a10.85 10.85 0 0 0 1.52-3.09 4.78 4.78 0 0 1 -2.92-4.38z"/><path d="m32 22.21a4.86 4.86 0 0 0 1.11-3.49 5 5 0 0 0 -3.21 1.66 4.63 4.63 0 0 0 -1.14 3.36 4.11 4.11 0 0 0 3.24-1.53z"/><path d="m52.3 37.14h-4.73l-1.14 3.36h-2l4.48-12.42h2.09l4.48 12.42h-2zm-4.24-1.55h3.75l-1.81-5.45h-.05z"/><path d="m65.16 36c0 2.81-1.51 4.62-3.78 4.62a3.08 3.08 0 0 1 -2.85-1.62v4.48h-1.9v-12h1.8v1.52a3.21 3.21 0 0 1 2.89-1.6c2.32-.05 3.84 1.76 3.84 4.6zm-1.91 0c0-1.83-1-3-2.39-3s-2.38 1.23-2.38 3 1 3.05 2.38 3.05 2.39-1.23 2.39-3.05z"/><path d="m75.12 36c0 2.81-1.5 4.62-3.77 4.62a3.07 3.07 0 0 1 -2.85-1.62v4.48h-1.9v-12h1.79v1.52a3.19 3.19 0 0 1 2.88-1.6c2.34-.05 3.85 1.76 3.85 4.6zm-1.91 0c0-1.83-.94-3-2.39-3s-2.37 1.23-2.37 3 .95 3 2.37 3 2.39-1.2 2.39-3.05z"/><path d="m81.71 37c.14 1.23 1.33 2 3 2s2.69-.81 2.69-1.92-.68-1.54-2.29-1.94l-1.61-.39c-2.28-.55-3.33-1.61-3.33-3.34 0-2.15 1.86-3.62 4.51-3.62s4.43 1.47 4.49 3.62h-1.91c-.11-1.24-1.14-2-2.63-2s-2.52.75-2.52 1.86c0 .87.65 1.39 2.25 1.79l1.37.33c2.55.6 3.61 1.63 3.61 3.44 0 2.33-1.86 3.78-4.8 3.78-2.75 0-4.61-1.42-4.73-3.66z"/><path d="m93.35 29.3v2.14h1.72v1.47h-1.72v5c0 .77.34 1.13 1.1 1.13h.61v1.46a5.12 5.12 0 0 1 -1 .09c-1.84 0-2.55-.69-2.55-2.45v-5.23h-1.35v-1.47h1.32v-2.14z"/><path d="m96.06 36c0-2.85 1.68-4.64 4.3-4.64s4.29 1.79 4.29 4.64-1.66 4.64-4.29 4.64-4.3-1.81-4.3-4.64zm6.7 0c0-1.95-.9-3.11-2.4-3.11s-2.36 1.11-2.36 3.11.89 3.11 2.4 3.11 2.4-1.15 2.4-3.11z"/><path d="m106.19 31.44h1.81v1.56a2.16 2.16 0 0 1 2.18-1.63 2.79 2.79 0 0 1 .64.07v1.74a2.41 2.41 0 0 0 -.82-.18 1.88 1.88 0 0 0 -2 1.8v.29 5.41h-1.85z"/><path d="m119.38 37.84c-.25 1.64-1.85 2.77-3.89 2.77-2.64 0-4.27-1.77-4.27-4.6s1.64-4.68 4.19-4.68 4.08 1.72 4.08 4.47v.63h-6.4v.12a2.36 2.36 0 0 0 2.14 2.55h.3a2.05 2.05 0 0 0 2.09-1.27zm-6.28-2.71h4.53a2.17 2.17 0 0 0 -2-2.29h-.17a2.29 2.29 0 0 0 -2.31 2.28z"/><path d="m47.83 18.73a2.65 2.65 0 0 1 2.82 2.44 2.35 2.35 0 0 1 0 .53c0 1.9-1 3-2.8 3h-2.18v-6zm-1.23 5.12h1.12a1.87 1.87 0 0 0 2-1.76 2.42 2.42 0 0 0 0-.38 1.88 1.88 0 0 0 -1.61-2.12 2.17 2.17 0 0 0 -.36 0h-1.15z"/><path d="m51.68 22.44a2.13 2.13 0 0 1 4.25-.4 2.67 2.67 0 0 1 0 .4 2.14 2.14 0 0 1 -4.25.42 2.94 2.94 0 0 1 0-.42zm3.33 0c0-1-.43-1.54-1.2-1.54s-1.21.57-1.21 1.54.4 1.56 1.21 1.56 1.2-.57 1.2-1.55z"/><path d="m61.57 24.7h-.92l-.93-3.32h-.07l-.93 3.32h-.91l-1.24-4.51h.9l.81 3.44h.06l.93-3.44h.85l.93 3.44h.07l.8-3.44h.89z"/><path d="m63.85 20.19h.86v.72h.07a1.33 1.33 0 0 1 1.34-.8 1.46 1.46 0 0 1 1.57 1.35 1.69 1.69 0 0 1 0 .32v2.92h-.89v-2.7c0-.73-.32-1.09-1-1.09a1 1 0 0 0 -1.08 1v2.79h-.89z"/><path d="m69.09 18.44h.91v6.26h-.89z"/><path d="m71.22 22.44a2.13 2.13 0 0 1 4.25-.4 2.67 2.67 0 0 1 0 .4 2.14 2.14 0 0 1 -4.25.42 1.48 1.48 0 0 1 0-.42zm3.33 0c0-1-.44-1.54-1.21-1.54s-1.2.57-1.2 1.54.43 1.56 1.2 1.56 1.21-.58 1.21-1.56z"/><path d="m76.4 23.42c0-.81.6-1.27 1.68-1.34l1.22-.08v-.39c0-.47-.32-.74-.93-.74s-.84.18-.93.5h-.87c.1-.78.82-1.27 1.84-1.27s1.77.56 1.77 1.51v3.09h-.86v-.63h-.07a1.49 1.49 0 0 1 -1.35.7 1.35 1.35 0 0 1 -1.49-1.21.66.66 0 0 1 -.01-.14zm2.9-.42v-.38l-1.1.07c-.62 0-.91.26-.91.65s.36.64.84.64a1.06 1.06 0 0 0 1.16-.95z"/><path d="m81.35 22.44c0-1.42.73-2.32 1.87-2.32a1.48 1.48 0 0 1 1.38.79h.06v-2.47h.89v6.26h-.85v-.7h-.07a1.57 1.57 0 0 1 -1.41.78c-1.15-.01-1.87-.91-1.87-2.34zm.92 0c0 1 .45 1.53 1.2 1.53s1.21-.58 1.21-1.52-.47-1.53-1.21-1.53-1.2.58-1.2 1.52z"/><path d="m89.23 22.44a2.13 2.13 0 0 1 4.25-.4 2.67 2.67 0 0 1 0 .4 2.14 2.14 0 0 1 -4.25.42 2.94 2.94 0 0 1 0-.42zm3.33 0c0-1-.44-1.54-1.21-1.54s-1.2.57-1.2 1.54.43 1.56 1.2 1.56 1.21-.58 1.21-1.56z"/><path d="m94.67 20.19h.85v.72h.07a1.34 1.34 0 0 1 1.35-.8 1.47 1.47 0 0 1 1.57 1.35 1.67 1.67 0 0 1 0 .32v2.92h-.91v-2.7c0-.73-.31-1.09-1-1.09a1 1 0 0 0 -1.08 1 .76.76 0 0 0 0 .15v2.64h-.89z"/><path d="m103.52 19.07v1.15h1v.78h-1v2.32c0 .47.19.68.63.68h.34v.74a2.59 2.59 0 0 1 -.48 0c-1 0-1.38-.34-1.38-1.21v-2.53h-.72v-.74h.72v-1.19z"/><path d="m105.7 18.44h.89v2.48h.07a1.38 1.38 0 0 1 1.37-.81 1.48 1.48 0 0 1 1.56 1.4 1.29 1.29 0 0 1 0 .28v2.91h-.89v-2.7c0-.72-.34-1.08-1-1.08a1.05 1.05 0 0 0 -1.14 1v2.78h-.89z"/><path d="m114.76 23.48a1.82 1.82 0 0 1 -2 1.3 2 2 0 0 1 -2.1-2 1.83 1.83 0 0 1 0-.33 2.07 2.07 0 0 1 1.78-2.33 1.51 1.51 0 0 1 .3 0c1.25 0 2 .85 2 2.27v.31h-3.17a1.18 1.18 0 0 0 1.15 1.3h.11a1.1 1.1 0 0 0 1.08-.55zm-3.12-1.48h2.27a1.09 1.09 0 0 0 -1-1.16h-.11a1.16 1.16 0 0 0 -1.16 1.16z"/></g></svg>