<svg viewBox="0 0 155 60" xmlns="http://www.w3.org/2000/svg" xmlns:xlink="http://www.w3.org/1999/xlink"><clipPath id="a"><path d="m20 18.94a.81.81 0 0 1 0-.16.81.81 0 0 0 0 .16m.54 23.45-.08-.07a2.07 2.07 0 0 1 -.46-1.41v-22 .15a1.92 1.92 0 0 1 .54-1.48l12.36 12.42-12.39 12.39"/></clipPath><linearGradient id="b" gradientTransform="matrix(-23.73 0 0 -23.73 38.21 1449.85)" gradientUnits="userSpaceOnUse" x2="1" y1="59.82" y2="59.82"><stop offset="0" stop-color="#00a0ff"/><stop offset=".01" stop-color="#00a1ff"/><stop offset=".26" stop-color="#00beff"/><stop offset=".51" stop-color="#00d2ff"/><stop offset=".76" stop-color="#00dfff"/><stop offset="1" stop-color="#00e3ff"/></linearGradient><clipPath id="c"><path d="m37 34.13-4.1-4.13 4.1-4.13 5 2.83a1.86 1.86 0 0 1 1.06 1.3 1.84 1.84 0 0 1 -1.06 1.3zm0 .15.09-.05 4.91-2.79a2.14 2.14 0 0 0 .94-.92 2.14 2.14 0 0 1 -.94.92l-4.89 2.79-.09.05"/></clipPath><linearGradient id="d" gradientTransform="matrix(-24.2 0 0 -24.2 43.83 1481.82)" gradientUnits="userSpaceOnUse" x2="1" y1="60" y2="60"><stop offset="0" stop-color="#ffe000"/><stop offset=".41" stop-color="#ffbd00"/><stop offset=".78" stop-color="#ffa500"/><stop offset="1" stop-color="#ff9c00"/></linearGradient><clipPath id="e"><path d="m20.51 42.53-.07-.06zm.88.19a1.31 1.31 0 0 1 -.88-.33l12.39-12.39 4.1 4.13-14.49 8.25a2.28 2.28 0 0 1 -1.12.34m0 .14a1.31 1.31 0 0 1 -.88-.32 1.31 1.31 0 0 0 .88.32z"/></clipPath><linearGradient id="f" gradientTransform="matrix(-32.19 0 0 -32.19 35.97 1968.92)" gradientUnits="userSpaceOnUse" x2="1" y1="60.04" y2="60.04"><stop offset="0" stop-color="#ff3a44"/><stop offset="1" stop-color="#c31162"/></linearGradient><clipPath id="g"><path d="m37.12 25.78-14.61-8.3a2.28 2.28 0 0 0 -1.12-.34 2.28 2.28 0 0 1 1.12.34zm-4.22 4.22-12.39-12.39a1.29 1.29 0 0 1 .88-.32 2.36 2.36 0 0 1 1.12.33l14.49 8.25z"/></clipPath><linearGradient id="h" gradientTransform="matrix(0 14.37 -14.37 0 892.46 5.95)" gradientUnits="userSpaceOnUse" x2="1" y1="60.09" y2="60.09"><stop offset="0" stop-color="#32a071"/><stop offset=".07" stop-color="#2da771"/><stop offset=".48" stop-color="#15cf74"/><stop offset=".8" stop-color="#06e775"/><stop offset="1" stop-color="#00f076"/></linearGradient><clipPath id="i"><path d="m37.03 34.28.09-.05z"/></clipPath><linearGradient id="j" gradientTransform="matrix(-24.2 0 0 -24.2 43.83 1481.82)" gradientUnits="userSpaceOnUse" x2="1" y1="59.82" y2="59.82"><stop offset="0" stop-color="#ccb300"/><stop offset=".41" stop-color="#cc9700"/><stop offset=".78" stop-color="#cc8400"/><stop offset="1" stop-color="#cc7d00"/></linearGradient><clipPath id="k"><path d="m21.39 42.86a1.31 1.31 0 0 1 -.88-.32l-.07-.06.07-.07a1.31 1.31 0 0 0 .88.33 2.28 2.28 0 0 0 1.12-.34l14.49-8.27.09.1-.09.05-14.49 8.24a2.36 2.36 0 0 1 -1 .34h-.1"/></clipPath><linearGradient id="l" gradientTransform="matrix(-32.19 0 0 -32.19 37.44 1969.49)" gradientUnits="userSpaceOnUse" x2="1" y1="60" y2="60"><stop offset="0" stop-color="#cc2e36"/><stop offset="1" stop-color="#9c0e4e"/></linearGradient><clipPath id="m"><path d="m20.43 42.46a2 2 0 0 1 -.46-1.4v-.15a2.07 2.07 0 0 0 .46 1.41l.08.07z"/></clipPath><linearGradient id="n" gradientTransform="matrix(-23.73 0 0 -23.73 44.66 1457.66)" gradientUnits="userSpaceOnUse" x2="1" y1="59.66" y2="59.66"><stop offset="0" stop-color="#008de0"/><stop offset=".01" stop-color="#008de0"/><stop offset=".26" stop-color="#00a7e0"/><stop offset=".51" stop-color="#00b8e0"/><stop offset=".76" stop-color="#00c4e0"/><stop offset="1" stop-color="#00c7e0"/></linearGradient><clipPath id="o"><path d="m20.44 42.46h-.01l.08-.07z"/></clipPath><linearGradient id="p" gradientTransform="matrix(-32.19 0 0 -32.19 37.76 1976.52)" gradientUnits="userSpaceOnUse" x2="1" y1="60.09" y2="60.09"><stop offset="0" stop-color="#e0333c"/><stop offset="1" stop-color="#ab0f56"/></linearGradient><clipPath id="q"><path d="m37.12 34.23-.09-.1 5-2.83a1.84 1.84 0 0 0 1.03-1.3 1.35 1.35 0 0 1 -.11.52 2.14 2.14 0 0 1 -.94.92z"/></clipPath><linearGradient id="r" gradientTransform="matrix(-24.2 0 0 -24.2 43.83 1481.82)" gradientUnits="userSpaceOnUse" x2="1" y1="59.91" y2="59.91"><stop offset="0" stop-color="#e0c500"/><stop offset=".41" stop-color="#e0a600"/><stop offset=".78" stop-color="#e09100"/><stop offset="1" stop-color="#e08900"/></linearGradient><clipPath id="s"><path d="m43.06 30a1.86 1.86 0 0 0 -1.06-1.3l-5-2.83.09-.09 4.91 2.78a1.75 1.75 0 0 1 1.06 1.44"/></clipPath><linearGradient id="t" gradientTransform="matrix(-24.2 0 0 -24.2 43.83 1481.82)" gradientUnits="userSpaceOnUse" x2="1" y1="60.09" y2="60.09"><stop offset="0" stop-color="#ffe840"/><stop offset=".41" stop-color="#ffce40"/><stop offset=".78" stop-color="#ffbc40"/><stop offset="1" stop-color="#ffb540"/></linearGradient><clipPath id="u"><path d="m20 19.09v-.15a.81.81 0 0 1 0-.16 1.91 1.91 0 0 1 .45-1.22l.08.07a1.92 1.92 0 0 0 -.53 1.46"/></clipPath><linearGradient id="v" gradientTransform="matrix(-23.73 0 0 -23.73 28.11 1450.8)" gradientUnits="userSpaceOnUse" x2="1" y1="60.36" y2="60.36"><stop offset="0" stop-color="#40b8ff"/><stop offset=".01" stop-color="#40b9ff"/><stop offset=".26" stop-color="#40ceff"/><stop offset=".51" stop-color="#40ddff"/><stop offset=".76" stop-color="#40e7ff"/><stop offset="1" stop-color="#40eaff"/></linearGradient><clipPath id="w"><path d="m37 25.87-14.49-8.25a2.36 2.36 0 0 0 -1.12-.33 1.29 1.29 0 0 0 -.88.32l-.08-.07.08-.07a1.27 1.27 0 0 1 .87-.33 2.28 2.28 0 0 1 1.12.34l14.61 8.3-.09.09"/></clipPath><linearGradient id="x" gradientTransform="matrix(0 14.37 -14.37 0 890.99 5.38)" gradientUnits="userSpaceOnUse" x2="1" y1="59.99" y2="59.99"><stop offset="0" stop-color="#65b895"/><stop offset=".07" stop-color="#62bd95"/><stop offset=".48" stop-color="#50db97"/><stop offset=".8" stop-color="#44ed98"/><stop offset="1" stop-color="#40f498"/></linearGradient><path d="m140 50h-125a5 5 0 0 1 -5-5v-30a5 5 0 0 1 5-5h125a5 5 0 0 1 5 5v30a5 5 0 0 1 -5 5"/><path d="m140 10.8a4.2 4.2 0 0 1 4.2 4.2v30a4.2 4.2 0 0 1 -4.2 4.2h-125a4.2 4.2 0 0 1 -4.2-4.2v-30a4.2 4.2 0 0 1 4.2-4.2zm0-.8h-125a5 5 0 0 0 -5 5v30a5 5 0 0 0 5 5h125a5 5 0 0 0 5-5v-30a5 5 0 0 0 -5-5" fill="#a6a6a6"/><g fill="#fff"><path d="m57.42 20.24a2.72 2.72 0 0 1 -.75 2 2.9 2.9 0 0 1 -2.2.88 3 3 0 0 1 -2.21-.9 3.19 3.19 0 0 1 0-4.46 3.16 3.16 0 0 1 3.44-.65 2.44 2.44 0 0 1 .94.67l-.53.52a2 2 0 0 0 -1.64-.71 2.4 2.4 0 1 0 1.68 4.13 1.92 1.92 0 0 0 .5-1.22h-2.18v-.72h2.91a3.75 3.75 0 0 1 0 .45"/><path d="m57.42 20.24h-.1a2.57 2.57 0 0 1 -.72 1.93 2.79 2.79 0 0 1 -2.13.85 2.94 2.94 0 0 1 -2.14-.87 3.09 3.09 0 0 1 0-4.32 2.94 2.94 0 0 1 2.14-.83 3 3 0 0 1 1.19.24 2.36 2.36 0 0 1 .9.64l.08-.06-.07-.07-.53.52.07.07.08-.06a2.14 2.14 0 0 0 -1.72-.75 2.53 2.53 0 0 0 -1.71 4.3 2.4 2.4 0 0 0 1.71.7 2.42 2.42 0 0 0 1.75-.7 2 2 0 0 0 .53-1.28v-.11h-2.18v-.52h2.81v-.1h-.1a2.15 2.15 0 0 1 0 .43h.2a2.69 2.69 0 0 0 -.05-.47v-.08h-3.06v.92h2.28v-.1h-.1a1.85 1.85 0 0 1 -.48 1.16 2.25 2.25 0 0 1 -3.83-1.68 2.2 2.2 0 0 1 .66-1.66 2.18 2.18 0 0 1 1.57-.64 1.93 1.93 0 0 1 1.56.68l.07.08.61-.6.07-.07-.06-.07a2.63 2.63 0 0 0 -1-.69 3.25 3.25 0 0 0 -3.55.67 3.12 3.12 0 0 0 -.94 2.3 3.16 3.16 0 0 0 .94 2.31 3.11 3.11 0 0 0 2.28.92 3 3 0 0 0 2.28-.92l-.08-.06.07.07a2.82 2.82 0 0 0 .78-2.08h-.1"/><path d="m62.03 17.74h-2.73v1.9h2.46v.72h-2.46v1.9h2.73v.74h-3.51v-6h3.51z"/><path d="m62.03 17.74v-.1h-2.83v2.1h2.46v.52h-2.46v2.1h2.73v.54h-3.3v-5.8h3.3v.64h.1v-.1.1h.1v-.84h-3.71v6.2h3.71v-.94h-2.73v-1.7h2.46v-.92h-2.46v-1.7h2.73v-.1z"/><path d="m65.28 23h-.77v-5.26h-1.68v-.74h4.12v.74h-1.67z"/><path d="m65.28 23v-.1h-.67v-5.26h-1.68v-.54h3.93v.54h-1.68v5.36h.1v-.1.1h.1v-5.16h1.68v-.94h-4.33v.94h1.68v5.26h.97v-.1z"/><path d="m69.94 17h.77v6h-.77z"/><path d="m69.94 23h.1v-5.9h.57v5.8h-.67v.1h.1-.1v.1h.87v-6.2h-.97v6.2h.1z"/><path d="m74.13 23h-.77v-5.26h-1.68v-.74h4.12v.74h-1.67z"/><path d="m74.13 23v-.1h-.67v-5.26h-1.68v-.54h3.92v.54h-1.67v5.36h.1v-.1.1h.1v-5.16h1.67v-.94h-4.32v.94h1.68v5.26h.97v-.1z"/><path d="m83.61 22.22a3.11 3.11 0 0 1 -4.4 0 3.24 3.24 0 0 1 0-4.44 2.93 2.93 0 0 1 2.2-.91 3 3 0 0 1 2.2.91 3.07 3.07 0 0 1 .88 2.22 3 3 0 0 1 -.88 2.22m-3.83-.5a2.29 2.29 0 0 0 3.26 0 2.54 2.54 0 0 0 0-3.44 2.29 2.29 0 0 0 -3.26 0 2.54 2.54 0 0 0 0 3.44z"/><path d="m83.61 22.22-.07-.07a3 3 0 0 1 -4.26 0 3.14 3.14 0 0 1 0-4.3 3 3 0 0 1 4.25 0 3.13 3.13 0 0 1 0 4.3l.14.14a3.34 3.34 0 0 0 0-4.58 3 3 0 0 0 -2.27-.94 3 3 0 0 0 -2.27.94 3.34 3.34 0 0 0 0 4.58 3.21 3.21 0 0 0 4.54 0l-.07-.07m-3.83-.5-.07.07a2.39 2.39 0 0 0 3.4 0 2.64 2.64 0 0 0 0-3.58 2.39 2.39 0 0 0 -3.4 0 2.64 2.64 0 0 0 0 3.58l.14-.14a2.45 2.45 0 0 1 0-3.3 2.2 2.2 0 0 1 3.12 0 2.45 2.45 0 0 1 0 3.3 2.11 2.11 0 0 1 -1.56.65 2.15 2.15 0 0 1 -1.56-.65z"/><path d="m85.58 23v-6h.93l2.92 4.67h.03l-.03-1.16v-3.51h.77v6h-.8l-3.05-4.89h-.04l.04 1.15v3.74z"/><path d="m85.58 23h.09v-5.9h.79l2.91 4.67h.2l-.04-1.26v-3.41h.57v5.8h-.65l-3.05-4.89h-.19l.04 1.25v3.64h-.67v.1h.09-.09v.1h.87v-3.84l-.04-1.16-.1.01v.1h.04v-.1l-.09.05 3.08 4.94h.96v-6.2h-.97v3.61l.03 1.16h.1v-.1h-.03v.1l.09-.06-2.95-4.71h-1.1v6.2h.11z"/><path d="m78.14 31.75a4.26 4.26 0 1 0 4.26 4.25 4.19 4.19 0 0 0 -4.26-4.25m0 6.83a2.58 2.58 0 1 1 2.4-2.58 2.46 2.46 0 0 1 -2.4 2.58zm-9.32-6.83a4.26 4.26 0 1 0 4.27 4.25 4.19 4.19 0 0 0 -4.27-4.25zm0 6.83a2.58 2.58 0 1 1 2.4-2.58 2.46 2.46 0 0 1 -2.4 2.58zm-11.08-5.52v1.8h4.32a3.77 3.77 0 0 1 -1 2.27 4.42 4.42 0 0 1 -3.34 1.32 4.8 4.8 0 0 1 0-9.6 4.64 4.64 0 0 1 3.28 1.29l1.27-1.27a6.3 6.3 0 0 0 -4.53-1.82 6.61 6.61 0 1 0 0 13.21 6.07 6.07 0 0 0 4.61-1.85 6 6 0 0 0 1.56-4.23 6.19 6.19 0 0 0 -.09-1.12zm45.31 1.4a4 4 0 0 0 -3.64-2.71 4 4 0 0 0 -4 4.25 4.16 4.16 0 0 0 4.22 4.26 4.23 4.23 0 0 0 3.55-1.89l-1.46-1a2.43 2.43 0 0 1 -2.09 1.17 2.15 2.15 0 0 1 -2.06-1.29l5.69-2.35zm-5.8 1.42a2.33 2.33 0 0 1 2.22-2.48 1.62 1.62 0 0 1 1.58.9zm-4.62 4.12h1.87v-12.5h-1.87zm-3.06-7.3h-.07a2.94 2.94 0 0 0 -2.24-1 4.26 4.26 0 0 0 0 8.51 2.88 2.88 0 0 0 2.24-1h.07v.61c0 1.63-.87 2.5-2.27 2.5a2.36 2.36 0 0 1 -2.15-1.51l-1.62.67a4 4 0 0 0 3.77 2.52c2.19 0 4-1.29 4-4.43v-7.57h-1.73zm-2.14 5.88a2.58 2.58 0 0 1 0-5.15 2.39 2.39 0 0 1 2.27 2.57 2.38 2.38 0 0 1 -2.27 2.58zm24.38-11.08h-4.48v12.5h1.87v-4.74h2.61a3.89 3.89 0 1 0 0-7.76zm0 6h-2.61v-4.26h2.65a2.14 2.14 0 1 1 0 4.28zm11.54-1.79a3.5 3.5 0 0 0 -3.33 1.91l1.65.69a1.78 1.78 0 0 1 1.71-.91 1.8 1.8 0 0 1 2 1.61v.12a4.18 4.18 0 0 0 -1.95-.48c-1.78 0-3.6 1-3.6 2.82a2.89 2.89 0 0 0 3.1 2.75 2.65 2.65 0 0 0 2.39-1.22h.06v1h1.8v-4.81c0-2.19-1.65-3.46-3.79-3.46zm-.23 6.85c-.61 0-1.46-.31-1.46-1.06 0-1 1.06-1.34 2-1.34a3.32 3.32 0 0 1 1.7.42 2.26 2.26 0 0 1 -2.2 2zm10.62-6.56-2.14 5.42h-.06l-2.22-5.42h-2l3.33 7.58-1.9 4.21h1.95l5.12-11.79zm-16.8 8h1.86v-12.5h-1.86z"/></g><g clip-path="url(#a)"><path d="m13.11 16.67h26.66v26.66h-26.66z" fill="url(#b)" transform="matrix(.70710678 -.70710678 .70710678 .70710678 -13.47 27.48)"/></g><g clip-path="url(#c)"><path d="m32.9 25.87h10.17v8.41h-10.17z" fill="url(#d)"/></g><g clip-path="url(#e)"><path d="m18.32 26.02h20.82v20.82h-20.82z" fill="url(#f)" transform="matrix(.70710678 -.70710678 .70710678 .70710678 -17.34 30.99)"/></g><g clip-path="url(#g)"><path d="m18.4 13.15h20.84v20.84h-20.84z" fill="url(#h)" transform="matrix(.70710678 -.70710678 .70710678 .70710678 -8.23 27.28)"/></g><path d="m21.51 42.86a2.36 2.36 0 0 0 1-.34l14.49-8.24-14.49 8.24a2.36 2.36 0 0 1 -1 .34"/><g clip-path="url(#i)"><path d="m37.03 34.23h.09v.05h-.09z" fill="url(#j)"/></g><g clip-path="url(#k)"><path d="m19.79 29.51h17.97v17.97h-17.97z" fill="url(#l)" transform="matrix(.70710678 -.70710678 .70710678 .70710678 -18.79 31.63)"/></g><path d="m20.43 42.46a2 2 0 0 1 -.46-1.4 2 2 0 0 0 .46 1.4"/><g clip-path="url(#m)"><path d="m19.5 40.95h1.48v1.48h-1.48z" fill="url(#n)" transform="matrix(.70710678 -.70710678 .70710678 .70710678 -23.55 26.52)"/></g><g clip-path="url(#o)"><path d="m20.42 42.37h.11v.11h-.11z" fill="url(#p)" transform="matrix(.70710678 -.70710678 .70710678 .70710678 -24 26.9)"/></g><path d="m43 30.52a1.35 1.35 0 0 0 .11-.52 1.39 1.39 0 0 1 -.11.52"/><g clip-path="url(#q)"><path d="m37.03 30h6.03v4.22h-6.03z" fill="url(#r)"/></g><path d="m43.06 30a1.75 1.75 0 0 0 -1.06-1.44l-4.89-2.78 4.89 2.78a1.75 1.75 0 0 1 1.06 1.44" fill="#404040"/><g clip-path="url(#s)"><path d="m37.03 25.78h6.03v4.22h-6.03z" fill="url(#t)"/></g><path d="m20 18.76c.05-1 .61-1.62 1.4-1.62a1.27 1.27 0 0 0 -.87.33l-.08.07a1.91 1.91 0 0 0 -.45 1.22" fill="#404040"/><g clip-path="url(#u)"><path d="m19.48 17.51h1.53v1.53h-1.53z" fill="url(#v)" transform="matrix(.70710678 -.70710678 .70710678 .70710678 -7 19.67)"/></g><g clip-path="url(#w)"><path d="m19.79 12.52h17.97v17.97h-17.97z" fill="url(#x)" transform="matrix(.70710678 -.70710678 .70710678 .70710678 -6.78 26.65)"/></g></svg>