<svg viewBox="0 0 140 60" xmlns="http://www.w3.org/2000/svg"><path d="m125 50h-110a5 5 0 0 1 -5-5v-30a5 5 0 0 1 5-5h110a5 5 0 0 1 5 5v30a5 5 0 0 1 -5 5"/><path d="m125 10.8a4.2 4.2 0 0 1 4.2 4.2v30a4.2 4.2 0 0 1 -4.2 4.2h-110a4.2 4.2 0 0 1 -4.2-4.2v-30a4.2 4.2 0 0 1 4.2-4.2zm0-.8h-110a5 5 0 0 0 -5 5v30a5 5 0 0 0 5 5h110a5 5 0 0 0 5-5v-30a5 5 0 0 0 -5-5" fill="#a6a6a6"/><path d="m71.6 28.16h4.54v13.36h-1l-2-1.75a1.33 1.33 0 0 0 -.17.16 6.45 6.45 0 0 1 -3.21 1.76 5 5 0 0 1 -1.63.11 7.12 7.12 0 0 1 -2.23-.48 4.38 4.38 0 0 1 -2.54-2.62 4.82 4.82 0 0 1 -.29-1.29c0-.29 0-.57 0-.86v-7.71l-5.83 5.76 1 1 1 1 1 1 1 1c.33.33.67.66 1 1s.66.65 1 1l1 1h-5.78l-5.46-5.47a.59.59 0 0 0 0 .29v5.1h-4.61s0 0 0 0v-13.35a3.68 3.68 0 0 1 .74 0h3.81v1.3 3.94l5.28-5.23h9.36v.31 7.23a4.57 4.57 0 0 0 .25 1.68 1.31 1.31 0 0 0 1.24.9 2.46 2.46 0 0 0 1.54-.37 3 3 0 0 0 .94-1 .47.47 0 0 0 0-.16v-8.61zm-41.2 6.69.29-.19a6.26 6.26 0 0 0 1.63-1.49 4.91 4.91 0 0 0 -.39-6.52 6.7 6.7 0 0 0 -2.24-1.56 7.72 7.72 0 0 0 -3-.64c-2.16 0-4.32 0-6.48 0h-.23v17.08h4.55s0 0 0 0v-4.53c0-.38 0-.75 0-1.14h1.39l4.12 5.68h5.18c-1.6-2.24-3.22-4.46-4.82-6.69zm-5.85-7.54h.21 1.23a2.84 2.84 0 0 1 2.74 2.16 2.77 2.77 0 0 1 -.59 2.53 2.86 2.86 0 0 1 -1.77 1c-.38.05-.76 0-1.14 0h-.68zm16.57 14.46a5.82 5.82 0 0 0 1.38-.27 7 7 0 0 0 5-6.45 6.23 6.23 0 0 0 -.11-1.43 6.85 6.85 0 0 0 -.88-2.34 7 7 0 0 0 -2.83-2.63 7.2 7.2 0 0 0 -2.92-.77 6.14 6.14 0 0 0 -1.6.12 6.86 6.86 0 0 0 -2.18.78 7.08 7.08 0 0 0 -2.06 1.75 6.92 6.92 0 0 0 -1.46 3.47 6.75 6.75 0 0 0 0 1.68 6.34 6.34 0 0 0 .39 1.6 6.7 6.7 0 0 0 2.23 3 7.11 7.11 0 0 0 4.43 1.49zm-2.41-9.28a2.74 2.74 0 0 1 .73-.93 1.49 1.49 0 0 1 2.08.08 3.39 3.39 0 0 1 .86 1.36 6.38 6.38 0 0 1 .29 1.31 5.49 5.49 0 0 1 -.2 2.1 3.26 3.26 0 0 1 -.89 1.59 2.68 2.68 0 0 1 -.52.36 1.36 1.36 0 0 1 -1.51-.13 2.88 2.88 0 0 1 -1-1.29 5.56 5.56 0 0 1 .13-4.44zm45.75 8.82a3.19 3.19 0 0 0 1.78.29 3 3 0 0 0 .59-.13 1.44 1.44 0 0 0 1-1.13 2 2 0 0 0 0-.55 1.19 1.19 0 0 0 -.52-.93 3.05 3.05 0 0 0 -.9-.41c-.28-.08-.56-.14-.83-.23a2.75 2.75 0 0 1 -.56-.23.56.56 0 0 1 -.2-.79.66.66 0 0 1 .51-.36 2 2 0 0 1 .85 0 3.39 3.39 0 0 1 1 .49l.5-.72a3.1 3.1 0 0 0 -2.45-.61 1.56 1.56 0 0 0 -1.38 1.82 1.15 1.15 0 0 0 .33.71 1.84 1.84 0 0 0 .73.44c.32.11.66.19 1 .29a2.82 2.82 0 0 1 .75.28.63.63 0 0 1 0 1.06 1.36 1.36 0 0 1 -.25.11 2.06 2.06 0 0 1 -1.41-.12 3 3 0 0 1 -.82-.53l-.57.68a2.72 2.72 0 0 0 .85.57zm3.07-8.68a1.82 1.82 0 0 1 -1.37.18 1.73 1.73 0 0 1 -1-.72 2 2 0 0 1 -.37-1.22 2 2 0 0 1 .39-1.21 1.78 1.78 0 0 1 1.49-.74 1.81 1.81 0 0 1 1.11.37l.42.31.59-.69a2.2 2.2 0 0 0 -.7-.53 3.08 3.08 0 0 0 -2.45-.16 2.63 2.63 0 0 0 -1.76 1.78 2.82 2.82 0 0 0 -.09 1.47 2.75 2.75 0 0 0 1.21 1.81 3 3 0 0 0 2.45.36 2.81 2.81 0 0 0 1.37-.86l-.62-.59c-.2.15-.45.31-.67.44zm6 .71c0-.75 0-1.51 0-2.27a2.47 2.47 0 0 0 0-.54 1.35 1.35 0 0 0 -.73-1 1.58 1.58 0 0 0 -1.83.34l-.21.22c0-.77 0-1.48 0-2.2a7 7 0 0 0 -.92 0v5.71h.91v-1.84a5.06 5.06 0 0 1 .05-.68.87.87 0 0 1 .52-.73 1 1 0 0 1 .52-.06.82.82 0 0 1 .75.69 6 6 0 0 1 0 .74v1.72a1.49 1.49 0 0 0 0 .21h.91zm9.52 7.52a1.24 1.24 0 0 1 -1.24-.49.94.94 0 0 1 -.18-.56h3a2.82 2.82 0 0 0 -.16-1.3 1.78 1.78 0 0 0 -1.19-1.11 2 2 0 0 0 -1-.06 2 2 0 0 0 -1.17.68 2.35 2.35 0 0 0 -.42 2.12 1.82 1.82 0 0 0 .58 1 2.29 2.29 0 0 0 2.66.23 1.26 1.26 0 0 0 .5-.47c-.18-.17-.35-.31-.54-.48a1.63 1.63 0 0 1 -.81.44zm-1.4-1.69a1 1 0 0 1 .46-.91 1 1 0 0 1 1-.07 1.06 1.06 0 0 1 .58 1zm-5.54-.85a2.26 2.26 0 0 0 -2.83-.81 2 2 0 0 0 -1.28 2 2 2 0 0 0 1.22 1.94 2.33 2.33 0 0 0 1.38.18 2.2 2.2 0 0 0 1.83-2.27 2 2 0 0 0 -.29-1.04zm-.65.87a1.49 1.49 0 0 1 -.22 1.11 1.26 1.26 0 0 1 -2 .08 1.41 1.41 0 0 1 0-1.85 1.06 1.06 0 0 1 .93-.38 1.27 1.27 0 0 1 1.32 1.04zm2.87-5.82c0-.74 0-1.47 0-2.21a2.24 2.24 0 0 0 0-.52 1.38 1.38 0 0 0 -1.11-1.11 3.5 3.5 0 0 0 -1.64 0 2.39 2.39 0 0 0 -.58.22 4.41 4.41 0 0 0 .26.72 2.76 2.76 0 0 1 1.47-.22.78.78 0 0 1 .69 1 3.53 3.53 0 0 0 -1.42-.12 1.78 1.78 0 0 0 -.72.18 1.18 1.18 0 0 0 -.71 1.21 1.17 1.17 0 0 0 .82 1.1 2.06 2.06 0 0 0 .82.11 1.66 1.66 0 0 0 1-.42l.16-.14v.48h.92zm-.94-1a.83.83 0 0 1 -.42.5 1.31 1.31 0 0 1 -.97.13.67.67 0 0 1 -.49-.51.63.63 0 0 1 .34-.67.88.88 0 0 1 .39-.11 3.29 3.29 0 0 1 .94.06 2.67 2.67 0 0 1 .26.09.82.82 0 0 1 -.02.54zm16-1.67a1.85 1.85 0 0 0 -.56-.87 1.91 1.91 0 0 0 -1.5-.43 1.88 1.88 0 0 0 -1.45.88 2.33 2.33 0 0 0 -.21 2.16 1.93 1.93 0 0 0 1.11 1.11 2.41 2.41 0 0 0 1 .15 1.94 1.94 0 0 0 1.43-.63.73.73 0 0 0 .1-.13c-.18-.17-.36-.32-.52-.46h-.07l-.09.06a1.47 1.47 0 0 1 -1 .38 1.17 1.17 0 0 1 -1.12-.84 1.4 1.4 0 0 1 0-.23h3a2.71 2.71 0 0 0 -.05-1.12zm-2.93.56a1.12 1.12 0 0 1 1.16-1.11 1.09 1.09 0 0 1 1 1.11zm-5.8-1.57v3.87a0 0 0 0 0 0 0h.91v-1.56c0-.27 0-.54 0-.8a.85.85 0 0 1 .24-.6 1 1 0 0 1 .81-.29.73.73 0 0 1 .69.51 2 2 0 0 1 .1.54v2.1a1.8 1.8 0 0 0 0 .22h.92v-2.68a3.55 3.55 0 0 0 -.07-.57 1.26 1.26 0 0 0 -.34-.63 1.57 1.57 0 0 0 -1.8-.22 1.72 1.72 0 0 0 -.57.52c0-.23 0-.4 0-.59h-1zm-1.31 3.79c0-.87 0-1.73 0-2.6a2.18 2.18 0 0 0 -.15-.67 1.26 1.26 0 0 0 -.3-.46 1.55 1.55 0 0 0 -1.78-.16 6.88 6.88 0 0 0 -.55.43c0-.17 0-.34 0-.53-.32 0-.63 0-1 0v3.91.2s0 0 0 0 .27 0 .42 0a1.59 1.59 0 0 0 .48 0v-2.3a1.61 1.61 0 0 1 .06-.44.89.89 0 0 1 1-.61.73.73 0 0 1 .69.51 1.66 1.66 0 0 1 .1.54v2.1a1.7 1.7 0 0 0 0 .22h.91s.19-.06.19-.11zm-13.22 3.9v-1.13h-.93v1.13h-.49v.62.2h.5v2.14a2.25 2.25 0 0 0 .07.52.85.85 0 0 0 .61.66 2 2 0 0 0 1 0 1.74 1.74 0 0 0 .36-.13c0-.14 0-.26 0-.38s0-.25 0-.36a3.1 3.1 0 0 1 -.39.09c-.46 0-.69-.1-.69-.61s0-1.17 0-1.75a2.06 2.06 0 0 1 0-.21h1.12v-.79c-.4-.01-.77.04-1.16 0zm9.37 0a1.84 1.84 0 0 0 -1 .87c0-.32 0-.58 0-.84h-.9v.15 3.93h.9v-.29c0-.44 0-.87 0-1.3a2.57 2.57 0 0 1 .06-.55 1.29 1.29 0 0 1 1-1c.13 0 .27 0 .4-.05v-1a1.41 1.41 0 0 0 -.46.08zm16.2-3.73a.29.29 0 0 0 0-.09v-5.56a8.55 8.55 0 0 0 -.87 0v5.71zm-36.7-4.87a.85.85 0 0 0 -.88-.87.88.88 0 0 0 -.88.88.85.85 0 0 0 .88.84.83.83 0 0 0 .88-.85zm-.88.8a.79.79 0 0 1 -.78-.8.79.79 0 1 1 .78.8zm-.32-.44h.2a1.87 1.87 0 0 1 0-.25.16.16 0 0 1 .23 0l.13.18a.1.1 0 0 0 .17 0l-.16-.26a.34.34 0 0 0 .13-.46c-.19-.17-.42-.09-.67-.11zm.16-.67h.28a.13.13 0 0 1 .11.14.12.12 0 0 1 -.11.13 1.24 1.24 0 0 1 -.28 0zm-43.45-8.68a1.47 1.47 0 0 0 -1.11-1.19 2.87 2.87 0 0 0 -1.15-.07 4.05 4.05 0 0 0 -1.14.35l-.11.05.22.48h.17l.26-.1a2.56 2.56 0 0 1 1.35-.16 1.08 1.08 0 0 1 .74.46 1 1 0 0 1 .15.72 4.84 4.84 0 0 0 -1.37-.14 2.54 2.54 0 0 0 -1 .19 1.39 1.39 0 0 0 -.09 2.56 2.39 2.39 0 0 0 1 .22 2.26 2.26 0 0 0 1-.23 2 2 0 0 0 .53-.37v.46h.64v-2.54a4.25 4.25 0 0 0 -.09-.69zm-.59 1.16a1.27 1.27 0 0 1 -.89 1.48 1.61 1.61 0 0 1 -1.31-.08.8.8 0 0 1 -.42-.68.76.76 0 0 1 .39-.68 1.11 1.11 0 0 1 .57-.18h.42a4.82 4.82 0 0 1 1.19.13zm2.25-2.39h.17v4.44h-.6v-4.41h.16.14zm-6.51 0h.63v.15c-.06.3-1.66 3.88-1.89 4.3v.06h-.48l-2-4.5h.73l1.54 3.6a2.08 2.08 0 0 0 .13-.3 2.6 2.6 0 0 1 .1-.25 5.22 5.22 0 0 0 .24-.54zm-6.49-1.56h-.59v.07c-.9 1.93-1.79 3.85-2.69 5.8l-.08.17h.7l.73-1.56h3.32l.68 1.52h.76l-1.91-4.11zm-1.65 3.78 1.34-2.93 1.34 2.93c-.54 0-2.12 0-2.68-.03zm28.15-4h.66v6.22h-.15-.13-.24-.05v-.07zm11 1.71h-.12a2.2 2.2 0 0 0 -1.55.63 2.32 2.32 0 0 0 -.71 1.7 2.4 2.4 0 0 0 .71 1.68 2.27 2.27 0 0 0 1.62.65 2.37 2.37 0 0 0 1.63-4 2.21 2.21 0 0 0 -1.59-.67zm1.22 3.4a1.56 1.56 0 0 1 -1.91.51 1.65 1.65 0 0 1 -1-1.51 1.72 1.72 0 0 1 .69-1.49 1.59 1.59 0 0 1 2.22.34 1.82 1.82 0 0 1 -.01 2.14zm5.83.87s0 .07 0 .11v.15h-.56v-.2a1.1 1.1 0 0 1 0-.18v-2.23a1.59 1.59 0 0 0 -.13-.66 1.09 1.09 0 0 0 -1-.67 1.3 1.3 0 0 0 -1.27.67 1.53 1.53 0 0 0 -.2.85v1.37 1.03h-.66v-.1c-.07-.28-.09-3.47 0-4.24v-.12h.6v.56a1.64 1.64 0 0 1 1.37-.65 2.46 2.46 0 0 1 .64.07 1.51 1.51 0 0 1 1.08 1 1.94 1.94 0 0 1 .15.72v1.61zm-12.2-2.1a4.51 4.51 0 0 0 -.07-.53 2.12 2.12 0 0 0 -.78-1.26 2 2 0 0 0 -1.28-.39 2 2 0 0 0 -1.59.83 2.5 2.5 0 0 0 -.48 1.69 2.17 2.17 0 0 0 1 1.73 2.11 2.11 0 0 0 1.24.4 2.47 2.47 0 0 0 1.84-.84l.08-.09-.15-.14a.69.69 0 0 0 -.13-.11.2.2 0 0 0 -.09 0l-.11-.08-.06.06a1.66 1.66 0 0 1 -2.18.35 1.42 1.42 0 0 1 -.76-1.21h2.79a2.42 2.42 0 0 0 .65 0h.11v-.12zm-.7-.16h-2.82a1.42 1.42 0 0 1 2-1.26 1.54 1.54 0 0 1 .81 1.25zm-7.44-1.84a2 2 0 0 0 -2.24.36l-.27.28v-.88c0-.21 0-.43 0-.64v-.28a2.82 2.82 0 0 0 0-.64v-.1h-.54v.16s0 .07 0 .11v5.8a.17.17 0 0 0 0 .1l.07.08h.52v-.65l.2.2a2.07 2.07 0 0 0 1.43.58 2.16 2.16 0 0 0 1.42-.54 2.32 2.32 0 0 0 .77-1.92 2.18 2.18 0 0 0 -1.37-2.03zm.62 2.14a1.79 1.79 0 0 1 -.18.88 1.54 1.54 0 0 1 -2.34.49 1.68 1.68 0 0 1 -.65-1.27 1.7 1.7 0 0 1 .61-1.42 1.51 1.51 0 0 1 1-.39 1.32 1.32 0 0 1 .34 0 1.55 1.55 0 0 1 1.08.93 1.73 1.73 0 0 1 .14.78zm-10.4-4h.65v6.2h-.07a.41.41 0 0 1 -.18 0h-.24v-.07zm-1.91.14h.71v.77h-.71zm5.95 1.63a2.5 2.5 0 0 0 -1 0 2.83 2.83 0 0 0 -1 .35l-.09.05v.1c.05.1.08.2.12.27v.07h.12.08l.23-.08a2.3 2.3 0 0 1 1.39-.15 1 1 0 0 1 .81.67 1.25 1.25 0 0 1 .08.5l-.52-.09a3.57 3.57 0 0 0 -1.57 0 1.36 1.36 0 0 0 -1.19 1.33 1.26 1.26 0 0 0 .53 1.15 2.08 2.08 0 0 0 1.24.39 2.11 2.11 0 0 0 1.15-.33 4.29 4.29 0 0 0 .35-.28v.48h.62v-.12c0-.3 0-.59 0-.88 0-.65 0-1.32 0-2a1.52 1.52 0 0 0 -1.33-1.46zm.74 3.11a1.35 1.35 0 0 1 -1 .83 1.75 1.75 0 0 1 -.85 0 1 1 0 0 1 -.6-.39.75.75 0 0 1 .17-1 1.19 1.19 0 0 1 .69-.25h.36a4.66 4.66 0 0 1 1.26.15v.13a1.35 1.35 0 0 1 -.01.5z" fill="#fff"/></svg>