<svg xmlns="http://www.w3.org/2000/svg" viewBox="0 0 200 20.64"><defs><style>.cls-1{fill:#6fbce6;}.cls-2{fill:none;}.cls-3{fill:#fff;}</style></defs><g id="Standard_Logo" data-name="Standard Logo"><path id="SVGID" class="cls-1" d="M6.57,9.1.5,13.51H8l2.32,7.13,2.31-7.13h7.5L14.07,9.1,16.38,2,10.32,6.38,4.25,2Z"/><rect class="cls-2" width="20.64" height="20.64" rx="10.32"/><path class="cls-3" d="M43.89,16.27a7.14,7.14,0,0,1-3.23-.72l.17-1.24a6,6,0,0,0,3.11.9c1.42,0,2.49-.77,2.49-2.06s-.61-1.69-2.44-2.48c-2.34-1-3.17-1.72-3.17-3.36s1.48-3,3.47-3A5.23,5.23,0,0,1,47,5l-.18,1.2a4.76,4.76,0,0,0-2.54-.75c-1.43,0-2.22.8-2.22,1.8s.58,1.53,2.45,2.33c2.25.95,3.17,1.79,3.17,3.51C47.66,15.07,46,16.27,43.89,16.27Z"/><path class="cls-3" d="M64.53,5.6V16.14h-1.2V5.6H59.42V4.48h8.93l.17,1.12Z"/><path class="cls-3" d="M83.52,4.43h1.25L89.54,16l-1.21.26-1.56-3.85H81.49L80,16.14H78.74Zm-1.61,6.9h4.42l-2.2-5.5Z"/><path class="cls-3" d="M110.52,16.14l-7.07-9.72v9.72h-1.14V4.48h1.14l6.87,9.41V4.48h1.13V16.14Z"/><path class="cls-3" d="M128.4,16.14h-3.23V4.48h3.3c4,0,6.31,2.36,6.31,5.82S132.33,16.14,128.4,16.14Zm.08-10.55h-2.1v9.46h2.1c3.08,0,5-1.58,5-4.73S131.49,5.59,128.48,5.59Z"/><path class="cls-3" d="M151.17,4.43h1.26L157.19,16l-1.21.26-1.56-3.85h-5.28l-1.48,3.73h-1.27Zm-1.61,6.9H154l-2.21-5.5Z"/><path class="cls-3" d="M176.62,16.26l-3.86-5.19h-1.59v5.07H170V4.48H173c2.43,0,3.91,1.2,3.91,3.23a3.27,3.27,0,0,1-2.83,3.22L177.89,16ZM173,5.55h-1.78V10h1.59c1.79,0,2.93-.82,2.93-2.26S174.77,5.55,173,5.55Z"/><path class="cls-3" d="M193.63,16.14h-3.24V4.48h3.3c4,0,6.31,2.36,6.31,5.82S197.55,16.14,193.63,16.14Zm.08-10.55H191.6v9.46h2.11c3.07,0,5-1.58,5-4.73S196.72,5.59,193.71,5.59Z"/></g></svg>